<!-- by TradingView --><svg width="56" height="56" viewBox="0 0 56 56" xmlns="http://www.w3.org/2000/svg"><path fill="#195594" d="M0 0h56v56H0z"/><path d="M16 20v16h-3V23.24l-4 2.68v-2.88L13.05 20H16Zm10.02 0c3.97 0 5.98 3.07 5.98 7.98V28c0 4.92-2 8-5.98 8-3.98 0-6.02-3.08-6.02-8v-.02c0-4.91 2.04-7.98 6.02-7.98Zm15 0c3.97 0 5.98 3.07 5.98 7.98V28c0 4.92-2 8-5.98 8-3.98 0-6.02-3.08-6.02-8v-.02c0-4.91 2.04-7.98 6.02-7.98Zm-15 2.6c-1.96 0-3.02 1.99-3.02 5.38V28c0 3.4 1.06 5.4 3.02 5.4 1.95 0 2.98-2 2.98-5.4v-.02c0-3.4-1.03-5.39-2.98-5.39Zm15 0c-1.96 0-3.02 1.99-3.02 5.38V28c0 3.4 1.06 5.4 3.02 5.4 1.95 0 2.98-2 2.98-5.4v-.02c0-3.4-1.03-5.39-2.98-5.39Z" fill="#fff"/></svg>